 <svg version="1.0" xmlns="http://www.w3.org/2000/svg"  width="300.000000pt" height="300.000000pt" viewBox="0 0 300.000000 300.000000"  preserveAspectRatio="xMidYMid meet">  <g transform="translate(0.000000,300.000000) scale(0.100000,-0.100000)" fill="#000000" stroke="none"> <path d="M881 2678 l3 -62 -62 3 -62 2 0 -315 0 -316 125 0 125 0 0 304 c0 198 -4 307 -10 311 -7 4 -10 -87 -10 -282 0 -158 0 -293 0 -299 0 -14 -177 -19 -193 -5 -9 7 -11 86 -9 285 l3 276 43 0 c56 0 76 22 76 83 l0 47 590 0 590 0 0 -40 0 -40 -542 -2 -543 -3 554 -5 c431 -4 555 -8 559 -17 2 -8 22 -13 52 -13 l49 0 -2 -287 -2 -288 -540 -2 c-297 -1 -566 -3 -597 -3 -32 0 -58 -4 -58 -10 0 -7 212 -10 615 -10 l615 0 0 316 0 316 -65 -4 -65 -4 0 63 0 63 -621 0 -620 0 2 -62z"/> <path d="M760 1930 c0 -32 4 -49 10 -45 6 3 10 24 10 45 0 21 -4 42 -10 45 -6 4 -10 -13 -10 -45z"/> <path d="M2230 1929 c0 -31 4 -48 10 -44 6 3 10 26 10 51 0 24 -4 44 -10 44 -5 0 -10 -23 -10 -51z"/> <path d="M638 1804 l4 -66 -66 4 -66 3 0 -62 0 -63 125 0 125 0 0 -66 0 -65 -62 2 c-35 2 -62 0 -60 -4 1 -4 2 -58 2 -121 l0 -114 60 -4 60 -3 0 63 0 62 63 0 62 0 -3 125 -3 125 620 0 621 0 0 -125 0 -125 66 0 65 0 -2 -62 -3 -62 62 3 62 2 0 -190 0 -191 -62 0 -63 0 3 -60 4 -60 -66 0 -66 0 0 -125 0 -125 125 0 125 0 0 60 0 60 -66 0 c-56 0 -65 2 -60 16 3 9 6 38 6 65 l0 49 60 0 60 0 0 60 0 60 60 0 60 0 0 180 c0 99 0 183 0 188 0 4 -27 8 -60 10 l-60 3 0 122 0 122 -63 -3 -62 -3 0 63 0 63 -55 3 c-30 2 -60 8 -67 14 -9 7 -188 10 -563 10 l-550 0 0 109 c0 85 3 108 12 103 7 -5 289 -9 628 -9 338 -1 634 -2 658 -3 l42 -2 0 -49 c0 -55 14 -72 62 -76 18 -2 38 -3 44 -4 6 -1 11 -16 10 -33 l-1 -33 -100 -1 c-126 -2 -125 -2 -125 -14 0 -6 49 -10 128 -10 l127 0 -1 62 -2 62 -62 -3 -62 -3 4 66 4 66 -871 0 -871 0 4 -66z m356 -16 c-1 -35 -2 -81 -3 -103 l-1 -40 -50 -1 c-75 -1 -80 -9 -80 -135 0 -60 -3 -109 -7 -110 -105 -8 -122 -16 -117 -57 6 -53 -5 -72 -42 -72 l-34 0 0 95 0 95 44 0 c64 0 76 17 76 100 0 87 -5 90 -139 90 l-101 0 0 30 c0 29 2 30 42 30 58 0 78 21 78 81 l0 48 53 4 c28 2 104 4 167 5 l115 2 -1 -62z m1226 -242 c0 -65 21 -86 82 -86 l38 0 0 -95 0 -95 -35 0 -35 0 0 49 c0 58 -10 69 -70 73 l-45 3 -3 103 -3 102 36 0 35 0 0 -54z m240 -486 l0 -160 -30 0 -30 0 0 160 0 160 30 0 30 0 0 -160z m-122 -252 c3 -37 3 -38 -32 -38 -35 0 -36 1 -36 39 0 38 1 39 33 38 29 -2 32 -5 35 -39z m-118 -132 c0 -65 15 -81 76 -78 l44 2 0 -40 0 -40 -95 0 c-83 0 -95 2 -96 18 -1 9 -1 52 -1 96 0 83 7 96 50 96 20 0 22 -5 22 -54z"/> <path d="M973 1373 c9 -2 23 -2 30 0 6 3 -1 5 -18 5 -16 0 -22 -2 -12 -5z"/> <path d="M1130 1310 l0 -60 -60 0 -60 0 0 -127 0 -128 122 2 122 2 -3 60 -2 61 65 0 66 0 0 125 0 125 -125 0 -125 0 0 -60z m221 23 c2 -33 2 -78 0 -130 l-1 -53 -34 0 c-37 0 -45 11 -41 55 6 51 -9 65 -70 65 l-55 0 2 38 1 39 99 2 c88 1 98 0 99 -16z m-95 -105 c-3 -13 -6 -42 -6 -65 l0 -43 -60 0 -60 0 0 58 c0 32 3 62 7 65 3 4 33 7 66 7 57 0 59 -1 53 -22z m-146 -52 c0 -70 5 -76 66 -76 l54 0 0 -40 0 -40 -100 0 -100 0 0 100 0 100 40 0 40 0 0 -44z"/> <path d="M1630 1245 l0 -125 60 0 60 0 0 -59 0 -60 125 -3 125 -3 0 128 0 128 -62 -3 -63 -3 3 -62 3 -63 -66 0 -65 0 0 65 0 65 59 0 59 0 4 60 3 60 -122 0 -123 0 0 -125z m217 65 l-1 -40 -46 0 c-25 0 -51 -5 -58 -12 -7 -7 -12 -35 -12 -63 l0 -51 -37 1 -38 1 -3 102 -3 102 99 0 100 0 -1 -40z m123 -190 l0 -100 -94 0 -94 0 -4 35 c-2 20 -2 38 1 40 2 3 26 5 52 5 56 0 69 15 69 79 0 40 1 41 35 41 l35 0 0 -100z"/> <path d="M510 1060 l0 -190 60 0 60 0 0 190 0 190 -60 0 -60 0 0 -190z m100 0 l0 -160 -35 0 -35 0 0 160 0 160 35 0 35 0 0 -160z"/> <path d="M753 1150 c0 -41 2 -58 4 -37 2 20 2 54 0 75 -2 20 -4 3 -4 -38z"/> <path d="M1632 1050 c0 -19 2 -27 5 -17 2 9 2 25 0 35 -3 9 -5 1 -5 -18z"/> <path d="M753 980 c0 -47 2 -66 4 -42 2 23 2 61 0 85 -2 23 -4 4 -4 -43z"/> <path d="M1380 941 c0 -63 8 -65 11 -3 l3 42 120 2 c132 1 117 6 -37 10 l-97 3 0 -54z"/> <path d="M1012 940 c0 -19 2 -27 5 -17 2 9 2 25 0 35 -3 9 -5 1 -5 -18z"/> <path d="M1235 880 c-3 -5 -1 -10 4 -10 6 0 11 5 11 10 0 6 -2 10 -4 10 -3 0 -8 -4 -11 -10z"/> <path d="M640 826 c0 -24 -3 -51 -6 -60 -5 -14 4 -16 60 -16 l66 0 0 -125 0 -125 -63 0 -63 0 4 -66 4 -66 -66 4 -66 3 0 -62 0 -63 -60 0 -60 0 0 -125 c0 -77 4 -125 10 -125 6 0 10 43 10 110 l0 110 45 0 44 0 4 -112 3 -113 2 128 2 127 63 0 62 0 -3 48 c-5 67 14 86 80 80 l48 -5 0 64 0 64 123 -3 122 -3 3 -63 c2 -42 7 -62 15 -61 7 1 33 1 60 0 l47 -1 0 -60 0 -60 59 0 c68 0 75 -8 70 -81 l-3 -40 306 -2 307 -2 3 60 3 60 63 3 62 3 0 55 0 55 244 -3 245 -3 6 -33 c3 -18 3 -42 0 -52 -6 -18 -1 -20 59 -20 l66 0 2 -127 2 -128 3 113 4 112 44 0 45 0 0 -110 c0 -67 4 -110 10 -110 6 0 10 48 10 125 l0 125 -60 0 -60 0 0 63 0 62 -374 -3 -374 -2 4 -60 4 -60 -316 0 -315 0 2 62 3 62 -62 -3 -62 -2 0 65 0 66 -60 0 -60 0 0 60 0 60 -65 0 -65 0 0 65 0 65 -60 0 -60 0 0 60 0 60 -60 0 -60 0 0 -44z m90 -16 c0 -39 -1 -40 -35 -40 -34 0 -35 1 -35 40 0 39 1 40 35 40 34 0 35 -1 35 -40z m121 -90 c5 0 9 -22 9 -49 0 -59 22 -81 82 -81 37 0 38 -1 38 -34 l0 -35 -94 -3 -95 -3 -3 102 c-3 106 1 118 40 107 8 -2 18 -4 23 -4z m-111 -290 c0 -40 0 -40 -40 -40 -40 0 -40 0 -40 40 0 40 0 40 40 40 40 0 40 0 40 -40z m360 0 c0 -39 -1 -40 -35 -40 -34 0 -35 1 -35 40 0 39 1 40 35 40 34 0 35 -1 35 -40z m130 -126 c0 -38 -3 -45 -16 -40 -9 3 -27 6 -40 6 -21 0 -24 4 -24 40 0 40 0 40 40 40 l40 0 0 -46z m750 7 c0 -35 -3 -39 -28 -43 -44 -6 -52 0 -52 43 0 39 0 39 40 39 40 0 40 0 40 -39z m-1370 -9 c0 -38 0 -38 -35 -34 -32 4 -35 7 -35 38 0 32 2 34 35 34 34 0 35 -1 35 -38z m1980 3 c0 -34 -1 -35 -40 -35 -39 0 -40 1 -40 35 0 34 1 35 40 35 39 0 40 -1 40 -35z m-739 -93 c0 -4 1 -22 2 -40 l2 -32 -292 0 -293 0 0 43 0 42 290 -3 c159 -1 290 -6 291 -10z"/> <path d="M827 863 l42 -4 4 -47 3 -47 2 53 2 52 -47 -2 -48 -1 42 -4z"/> <path d="M1380 745 l0 -125 55 0 c30 0 55 5 55 10 0 6 -18 10 -39 10 -46 0 -50 4 -56 65 l-5 45 55 0 55 0 0 -65 0 -65 66 0 66 0 -4 65 -3 65 59 0 c49 0 57 -3 52 -16 -3 -9 -6 -33 -6 -54 0 -34 -3 -39 -22 -38 -45 2 -68 -2 -68 -12 0 -5 25 -10 55 -10 l55 0 0 125 0 125 -185 0 -185 0 0 -125z m350 63 l0 -38 -48 0 c-26 0 -53 -5 -60 -12 -7 -7 -12 -34 -12 -61 l0 -48 -42 3 -43 3 -3 45 c-4 59 -15 70 -71 70 l-47 0 -1 39 -1 40 164 -2 164 -1 0 -38z"/> <path d="M910 742 c0 -4 17 -8 37 -7 36 0 38 -2 44 -38 9 -56 19 -57 19 0 l0 50 -50 2 c-27 1 -50 -2 -50 -7z"/> <path d="M1070 611 c44 -6 45 -7 49 -46 4 -58 11 -56 11 3 l0 52 -52 -2 -53 -1 45 -6z"/> <path d="M1592 503 c-28 -3 -42 -8 -39 -16 2 -7 10 -12 18 -13 8 0 20 -2 27 -2 6 -1 12 -14 12 -29 0 -28 14 -23 16 5 3 51 3 51 52 55 l47 3 -45 0 c-25 0 -64 -1 -88 -3z"/> <path d="M1888 503 c6 -2 18 -2 25 0 6 3 1 5 -13 5 -14 0 -19 -2 -12 -5z"/> <path d="M1943 503 c9 -2 25 -2 35 0 9 3 1 5 -18 5 -19 0 -27 -2 -17 -5z"/> <path d="M2433 503 l57 -4 0 -55 c0 -34 4 -53 10 -49 11 7 14 74 4 99 -5 13 -20 16 -68 14 l-61 -2 58 -3z"/> <path d="M1162 495 c2 -3 20 -6 39 -8 32 -2 34 -5 40 -47 l6 -45 1 53 2 52 -47 0 c-25 0 -44 -2 -41 -5z"/> <path d="M1504 489 c-3 -6 -2 -15 2 -19 12 -12 38 5 30 19 -9 14 -23 14 -32 0z"/> <path d="M1750 438 c0 -34 3 -58 8 -54 4 4 7 26 7 49 l0 42 45 0 45 0 1 -42 c1 -68 14 -63 14 5 l0 62 -60 0 -60 0 0 -62z"/> <path d="M2000 444 c0 -63 9 -69 13 -8 l2 39 45 0 45 0 2 -39 c3 -58 13 -57 13 1 0 57 -2 58 -72 62 l-48 3 0 -58z"/> <path d="M2253 435 c0 -27 2 -38 4 -22 2 15 2 37 0 50 -2 12 -4 0 -4 -28z"/> <path d="M2348 463 c-5 -27 3 -73 13 -73 5 0 9 20 9 45 0 44 -15 63 -22 28z"/> <path d="M1505 440 c-3 -5 1 -10 10 -10 9 0 13 5 10 10 -3 6 -8 10 -10 10 -2 0 -7 -4 -10 -10z"/> <path d="M1500 402 c0 -15 11 -21 27 -15 12 5 12 7 1 14 -17 11 -28 11 -28 1z"/> <path d="M1610 394 c0 -8 5 -12 10 -9 6 3 10 10 10 16 0 5 -4 9 -10 9 -5 0 -10 -7 -10 -16z"/> <path d="M1578 393 c7 -3 16 -2 19 1 4 3 -2 6 -13 5 -11 0 -14 -3 -6 -6z"/> <path d="M1343 363 c32 -2 81 -2 110 0 29 2 3 3 -58 3 -60 0 -84 -1 -52 -3z"/> <path d="M1647 363 c18 -2 50 -2 70 0 21 2 7 4 -32 4 -38 0 -55 -2 -38 -4z"/> </g> </svg> 